<svg width="146" height="146" viewBox="0 0 146 146" fill="none" xmlns="http://www.w3.org/2000/svg">
<g clip-path="url(#clip0_108_1182)">
<path d="M79.4515 75.6737C78.6045 74.826 77.5988 74.1535 76.4919 73.6947C75.3849 73.2359 74.1984 72.9997 73.0001 72.9997C71.8018 72.9997 70.6153 73.2359 69.5083 73.6947C68.4013 74.1535 67.3957 74.826 66.5487 75.6737L39.1737 103.049C37.5115 104.77 36.5918 107.075 36.6126 109.467C36.6334 111.86 37.593 114.148 39.2849 115.84C40.9767 117.532 43.2654 118.492 45.6579 118.513C48.0505 118.533 50.3555 117.614 52.0765 115.951L63.8751 104.154V136.875C63.8751 139.295 64.8365 141.616 66.5478 143.327C68.259 145.039 70.58 146 73.0001 146C75.4202 146 77.7412 145.039 79.4524 143.327C81.1637 141.616 82.1251 139.295 82.1251 136.875V104.154L93.9237 115.951C95.6447 117.614 97.9497 118.533 100.342 118.513C102.735 118.492 105.023 117.532 106.715 115.84C108.407 114.148 109.367 111.86 109.388 109.467C109.408 107.075 108.489 104.77 106.826 103.049L79.4515 75.6737Z" fill="#D9D9D9"/>
<path d="M118.625 36.4987H117.707C115.77 27.0003 110.857 18.3659 103.682 11.8483C96.5058 5.33068 87.4401 1.26873 77.7997 0.251749C68.1593 -0.765236 58.4456 1.31563 50.0678 6.19248C41.6899 11.0693 35.0837 18.4885 31.2075 27.3737C22.8688 27.5783 14.9398 31.0315 9.11028 36.9974C3.28076 42.9633 0.0117651 50.97 0 59.3112C0.0224484 66.6056 2.57673 73.6659 7.22656 79.2861C11.8764 84.9064 18.3333 88.7379 25.4943 90.1263C27.8542 90.6042 30.3074 90.1301 32.3192 88.8071C34.331 87.4842 35.7383 85.4197 36.2346 83.0636C36.7309 80.7075 36.2758 78.2507 34.9685 76.2287C33.6613 74.2067 31.6078 72.7833 29.2557 72.2687C26.2038 71.719 23.4377 70.1262 21.4302 67.7627C19.4227 65.3992 18.2986 62.4118 18.25 59.3112C18.2556 55.6827 19.6994 52.2045 22.2651 49.6388C24.8308 47.0731 28.3091 45.6292 31.9375 45.6237C33.0337 45.8347 34.1169 46.1089 35.1814 46.4449C36.3639 46.7512 37.5959 46.8159 38.8039 46.6353C40.0119 46.4547 41.1711 46.0324 42.2122 45.3937C43.2517 44.7514 44.1527 43.9083 44.8626 42.9137C45.5725 41.9191 46.0771 40.793 46.3468 39.6012C47.8228 33.032 51.6704 27.2382 57.1526 23.3295C62.6348 19.4208 69.3663 17.6719 76.0579 18.4178C82.7494 19.1637 88.9306 22.3519 93.4175 27.3719C97.9045 32.3919 100.382 38.8907 100.375 45.6237C100.375 48.0438 101.336 50.3648 103.048 52.076C104.759 53.7873 107.08 54.7487 109.5 54.7487H118.625C121.045 54.7487 123.366 55.7101 125.077 57.4213C126.789 59.1326 127.75 61.4536 127.75 63.8737C127.75 66.2938 126.789 68.6148 125.077 70.326C123.366 72.0373 121.045 72.9987 118.625 72.9987C116.205 72.9987 113.884 73.9601 112.173 75.6713C110.461 77.3826 109.5 79.7036 109.5 82.1237C109.5 84.5438 110.461 86.8648 112.173 88.576C113.884 90.2873 116.205 91.2487 118.625 91.2487C125.885 91.2487 132.848 88.3645 137.982 83.2307C143.116 78.0969 146 71.134 146 63.8737C146 56.6134 143.116 49.6505 137.982 44.5166C132.848 39.3828 125.885 36.4987 118.625 36.4987Z" fill="#D9D9D9"/>
</g>
<defs>
<clipPath id="clip0_108_1182">
<rect width="146" height="146" fill="white"/>
</clipPath>
</defs>
</svg>
